PathFileType	4	(X/Y/Z)	Patient4_TMGait_0pt8_01_left_26.trc.trc
DataRate	CameraRate	NumFrames	NumMarkers	Units	OrigDataRate	OrigDataStartFrame	OrigNumFrames
86.419753086420	86.419753086420	4	33	mm	86.419753086420	124	       141
Frame#	Time	Sacral			L.Shoulder			Chest			R.Shoulder			Neck			R.ASIS			L.ASIS			R.Thigh.Superior			R.Thigh.Lateral			R.Thigh.Inferior			R.Patella			L.Thigh.Superior			L.Thigh.Lateral			L.Thigh.Inferior			L.Patella			L.Shank.Superior			L.Shank.Lateral			L.Shank.Inferior			R.Shank.Superior			R.Shank.Lateral			R.Shank.Inferior			R.Heel			R.Midfoot.Superior			R.Midfoot.Lateral			R.Toe			L.Heel			L.Midfoot.Lateral			L.Midfoot.Superior			L.Toe			L.Elbow			L.Wrist			R.Elbow			R.Wrist			
		X1	Y1	Z1	X2	Y2	Z2	X3	Y3	Z3	X4	Y4	Z4	X5	Y5	Z5	X6	Y6	Z6	X7	Y7	Z7	X8	Y8	Z8	X9	Y9	Z9	X10	Y10	Z10	X11	Y11	Z11	X12	Y12	Z12	X13	Y13	Z13	X14	Y14	Z14	X15	Y15	Z15	X16	Y16	Z16	X17	Y17	Z17	X18	Y18	Z18	X19	Y19	Z19	X20	Y20	Z20	X21	Y21	Z21	X22	Y22	Z22	X23	Y23	Z23	X24	Y24	Z24	X25	Y25	Z25	X26	Y26	Z26	X27	Y27	Z27	X28	Y28	Z28	X29	Y29	Z29	X30	Y30	Z30	X31	Y31	Z31	X32	Y32	Z32	X33	Y33	Z33	

124	29.893285714286	880.659623838088	991.884633908929	480.166308209011	1034.507353984610	1408.000496681399	280.252288717143	1158.636932458866	1339.697240178061	426.959488661749	1101.903283953286	1421.243584365000	606.789717897270	1040.751109284869	1471.965234239888	434.600240671624	1107.356450521364	914.458619269549	579.897679936238	1079.120489110748	937.762349026034	304.906030366668	1083.461459708682	698.614075572865	556.684995583506	968.049200681227	617.330096875896	620.290135514300	1020.384916349438	543.560874680010	541.317944512574	989.300034831310	459.330305433901	545.926705292332	1160.932326295642	767.731411484819	347.839559589425	1123.234112773866	635.596823611151	267.748041384781	1225.912415305779	582.677933577515	334.072264924829	1251.635948905971	515.777498584548	333.892895830168	1239.441324550700	441.477838145042	321.373397930552	1180.660805544542	309.789538136426	267.717109514227	1267.171308197564	214.345518392798	328.978687635104	939.554506323214	381.267410799473	555.116298508252	842.848841447465	301.787192086363	619.057843016943	856.160514027336	198.317087913086	557.820897074113	687.382919231882	54.971304199907	529.837791000039	860.320010708396	98.282304616482	571.999173772810	766.654358081055	42.992301345288	607.437960779075	974.489519880358	38.823091689563	608.698961553078	1186.151361357165	39.072875967838	365.750404702722	1262.869412039307	41.069629873548	287.911832370594	1333.514935050989	116.709258941062	311.891581617220	1467.927791320745	83.455071841104	291.268964108039	868.240589550215	1094.756416238579	209.941470261750	803.406735924397	844.145144324595	243.262791049547	1298.563350791586	1153.065452487870	702.678647539738	1448.648990169197	1316.197615992275	593.960162367463	
125	29.904857142857	882.923721129275	990.393617606629	476.945205757293	1036.198641535694	1406.317566450409	277.367941674584	1159.904928150098	1338.642958558233	424.662297973969	1102.063337847468	1420.146016963397	604.263054633957	1041.608850467114	1470.542410551055	431.695863297398	1108.938139774673	912.848066633063	578.225393257428	1082.405491413269	935.981425330568	303.077384512473	1084.493954623450	696.723341748516	555.405297212707	968.301581935237	615.947582499089	618.437079730636	1021.096667640565	541.535499536411	540.042296262078	989.294120022667	456.312166263060	544.794108568689	1164.440687166049	765.959742697790	346.230906841033	1125.173566522709	633.954447936594	266.667167820583	1228.180398403624	580.856534429845	332.490600879145	1252.384454873261	512.641985575664	332.867058904999	1239.174007019499	438.041562415613	320.473970633482	1177.616679953889	307.475032969653	267.082921571472	1261.788405800526	210.354787217327	328.910122028846	937.435235229803	379.440209869930	553.955235851114	838.896464781466	302.420715239351	618.246624903431	850.108815041039	198.407571494565	557.520534074363	678.467197839900	57.896389734062	530.150666804946	852.096608115362	98.603518151842	572.213742498615	757.646111732406	44.539938258974	607.513696312196	965.234784915187	38.521956007139	608.800508183218	1175.682678683306	38.184140176621	366.106540831714	1251.941979853968	38.418706810712	287.573014936296	1325.336572312353	111.306399568502	312.153747674237	1458.763351490227	73.545496811431	290.326220105389	868.295012801372	1094.249860609551	208.098783149715	799.802413584644	844.617085294150	240.570557676426	1299.451267973350	1152.692626342645	700.682519986824	1445.297654942557	1319.082951199731	591.501937606056	
126	29.916428571429	885.062843537512	989.115808021222	473.754921127526	1038.064634969989	1404.758015697262	274.348902181737	1161.233242809960	1337.791580117414	422.357222767818	1102.211281464225	1419.330340239107	601.696011323298	1042.556122152869	1469.375007556470	428.641898967617	1110.486908684358	911.467907414910	576.490599749822	1085.568121330156	934.551971711018	301.302875830882	1086.014750975787	695.080516494660	553.958015515073	969.350314769428	614.472725743952	616.424983876192	1022.862377748007	539.541981599473	538.644139284331	990.520458448378	453.031277775754	543.740142082887	1167.785566726231	764.481684327348	344.411532682961	1127.088978954080	632.804495758833	265.159233981730	1230.293139564607	579.410971310518	330.664975240044	1253.164564560059	510.104119022434	331.454457102703	1238.985155270909	435.176263909557	319.264397970387	1174.817444742828	305.697546400419	266.128117470869	1256.625411379321	207.024788766570	328.616466426445	936.241834602815	377.599129482716	552.799839042451	835.651269002537	303.374830149415	617.323225105445	844.629077088739	198.791379782437	557.191173798943	669.830123905905	61.717392370673	530.293001182190	844.203913314889	99.017752401529	572.405437905651	748.752273962606	46.669667009132	607.491493560868	955.905815257088	38.119401157418	608.920419223588	1165.507843647073	37.683221438265	366.276724878910	1241.408888092031	36.432503706356	287.171254259569	1317.223603104202	106.830212628333	312.387174323548	1449.716301075943	65.110416376869	289.615805309819	869.519756762676	1093.156268136740	205.914164802140	797.779523832295	844.439042736922	237.372475883592	1299.249997583161	1151.523208034150	698.992305393199	1441.784063352638	1320.431691435191	589.394131034825	
127	29.928000000000	886.992555254777	988.125917249100	470.642916995734	1040.084669576858	1403.408573113708	271.251842982147	1162.606175130982	1337.185817175601	420.081183773216	1102.378372284032	1418.869130755348	599.113895079266	1043.595521480547	1468.534224290410	425.492525073098	1111.927996895846	910.395972874631	574.677117975845	1088.506822682115	933.563403265047	299.563648725467	1088.044669492725	693.770998774828	552.311208761085	971.311809782965	612.920596360937	614.276402915584	1025.822993702117	537.637627582655	537.136962097534	993.152630432556	449.546198616344	542.826485978321	1170.857312892506	763.408322364322	342.348034130729	1128.867140927383	632.178774745939	263.262916493514	1232.139122243940	578.395885622558	328.559256579790	1253.905796002253	508.232272152943	329.645555964285	1238.800061024925	432.931304188086	317.773903369653	1172.196524998712	304.504200651232	264.900958070107	1251.642963590938	204.419701291538	328.121944097182	936.148800998788	375.791917339140	551.680547423193	833.274925445956	304.740868548558	616.268751172643	839.876882474585	199.570844897008	556.805818206304	661.636990613755	66.660005518739	530.142874385252	836.756467205644	99.601503772145	572.534723315141	740.061928926455	49.574415069208	607.295593815162	946.509091845744	37.584814294279	609.063326401837	1155.751730496511	37.506558710877	366.299945001853	1231.392493997202	35.105305434423	286.753646281008	1309.196110255813	103.395798775445	312.580927259354	1440.853052538362	58.469247465893	289.131970843959	871.935642461191	1091.537730415700	203.350015141239	797.481850029689	843.610696668889	233.706607639451	1297.908490786021	1149.593930735632	697.626557817970	1438.166868044256	1320.257320151113	587.613817199311	
